<?xml version="1.0" encoding="utf-8"?>
<!-- Generator: Adobe Illustrator 18.1.1, SVG Export Plug-In . SVG Version: 6.00 Build 0)  -->
<!DOCTYPE svg PUBLIC "-//W3C//DTD SVG 1.1//EN" "http://www.w3.org/Graphics/SVG/1.1/DTD/svg11.dtd">
<svg version="1.1" xmlns="http://www.w3.org/2000/svg" xmlns:xlink="http://www.w3.org/1999/xlink" x="0px" y="0px"
	 viewBox="0 0 78.3 81.1" enable-background="new 0 0 78.3 81.1" xml:space="preserve">
<g id="lettering_2">
	<path fill="#FB2710" d="M9,25.3v24.9l2.9,1.2L12,40.1l6.7,12.8l3.6,1.4l-7.2-15.2l7.3-11c0,0-4-1-4-0.8c-0.1,0.2-6.4,9.6-6.4,9.6
		V25.7L9,25.3z"/>
	<path fill="#FB2710" d="M33.9,36.3c0,0-0.2-2-0.1-4c-5.3-3.6-11.7-1-11.7,9.9c0,10.9,5.2,16.2,12.2,15.4c0-1,0-3.4,0-4.2
		c-6.9,0.4-8.6-3.5-8.7-10.5C25.5,34.8,28.8,32.7,33.9,36.3z"/>
	<path fill="#FB2710" d="M56.3,46.6c-1.2-12.1-14-4.6-14-4.6c0.2,3.2,0.3,25.7,0.3,25.7C51.1,63.8,57.6,60.6,56.3,46.6z M45.8,62.7
		c0,0-0.1-15.6-0.2-17.8c0,0,7-3.9,7.7,3.5C54,57.3,51.6,60.1,45.8,62.7z"/>
	<path fill="#FB2710" d="M69.3,33.5c0,0,0-1.8,0-3.4c-6.1-1.2-11.9,6.2-11.6,17.5c0.3,10.5,9.2,9.3,12.4,5.3c0-0.9,0-3.4,0-4.2
		c-4.4,5.1-9.2,3.2-9-3.2C61.4,37.8,63.3,33.7,69.3,33.5z"/>
</g>
<g id="outline">
	<g>
		<g>
			<g>
				<path fill="#FB2710" d="M41.9,37c4.4-2.9,9-3.7,13.9-5.6c6.2-2.4,12.6-6.7,17.6-11c0.4-0.3-0.3-0.9-0.6-0.8
					c-6.9,2.7-12.1,8.2-19.1,10.7c-3.9,1.4-10.1,2-12.3,6.1C41.1,36.7,41.6,37.2,41.9,37L41.9,37z"/>
			</g>
		</g>
		<g>
			<g>
				<path fill="#FB2710" d="M31.1,5.5c7.5,2.3,14.6,5.5,22,8.3c6.4,2.5,12.7,5.4,19.6,5.9c0.9,0.1,0.6-1.1,0-1.3
					c-3.1-1.1-6.4-1.6-9.6-2.5c-3.6-1.1-7.1-2.6-10.6-4c-7.1-2.7-13.9-5.6-21.2-7.7C30.2,3.9,30.3,5.3,31.1,5.5L31.1,5.5z"/>
			</g>
		</g>
		<g>
			<g>
				<path fill="#FB2710" d="M5.6,12.6c4.5-1.7,8.8-3.5,13.6-4.2c3.8-0.6,7.7-1.2,11.2-2.8c0.5-0.2,0.1-0.8-0.3-1
					c-0.8-0.3-1.9,0.2-2.7,0.4C24,6,20.6,6.6,17,7.3C13.1,8.1,8.1,9.2,5.2,12C4.9,12.3,5.4,12.7,5.6,12.6L5.6,12.6z"/>
			</g>
		</g>
		<g>
			<g>
				<path fill="#FB2710" d="M5.3,12.4c3.1,3.6,5.4,4.3,9.9,3.8c2.1-0.2,4.6-0.3,6.6,0.7c1.5,0.8,2.1,2.6,3.3,3.4
					c1.1,0.7,1.1,0.4,2.3,0.8c17.2,5.3,4,1.3,8,3.9c0.4,0.3,0.8,0.8,1.4,0.9c1.8,0.4,4.2-1.9,5.9-2.3c3.5-0.7,6.9,0.3,10.4-1.1
					c2.4-1,3.7-2.5,4.9-4.9c0.2-0.5-0.6-1.1-0.9-0.6c-3.1,5.6-8.2,4.7-13.5,5.1c-1.8,0.1-3.4,1.4-4.9,1.6c-2.7,0.3-3.8-2.6-5.7-3.7
					c-1.8-1-2.8-0.7-4.7-0.6c-2.6,0.1-2.4-0.7-4-2.2c-1.6-1.5-3.9-2.1-6-2.3c-2-0.2-3.8,0.6-5.7,0.6c-2.7,0.1-4.7-2-6.8-3.4
					C5.3,11.9,5.1,12.2,5.3,12.4L5.3,12.4z"/>
			</g>
		</g>
		<g>
			<g>
				<path fill="#FB2710" d="M41.1,35.6c-1.5-0.4-1.8-0.2-2.4-1.6c-0.6-1.4,0.1-2.8,0.7-4c0.5-1,1.4-2.6,2.6-3.1
					c2.3-1.1,5.7-0.4,8.1-1c4.4-1,9.6-3.8,9-9c-0.1-0.5-1.2-1.2-1.3-0.3c-0.6,5.5-5.3,7.3-10.2,8c-2.3,0.4-5.3-0.2-7.3,1.2
					c-2.2,1.4-4,5.4-3.8,7.9c0.2,2.8,2.5,3.1,4.8,3.7C42.5,37.6,42,35.8,41.1,35.6L41.1,35.6z"/>
			</g>
		</g>
		<g>
			<g>
				<path fill="#FB2710" d="M29.4,22.1c1.2,0,2.3,1.5,3,2.3c0.7,0.9,1.3,1.8,1.9,2.7c0.2,0.3,0.9,0.7,1,0.2c0.6-1.8,0-3.5-1.4-4.7
					c-1.2-1-3.4-2.1-5-1.2c-0.5,0.3,0,0.9,0.4,0.9c1.2,0.2,2.4,0.3,3.5,1c1.2,0.7,1.9,1.9,1.4,3.3c0.3,0.1,0.7,0.1,1,0.2
					c-0.8-1.3-1.8-2.6-2.9-3.7c-0.8-0.8-2-1.8-3.2-1.4C28.7,21.7,29.1,22.1,29.4,22.1L29.4,22.1z"/>
			</g>
		</g>
		<g>
			<g>
				<path fill="#FB2710" d="M72.7,20c0.3,13.1-1.9,26.2-0.3,39.2c0.1,0.7,1.3,1,1.2,0.2c-1.4-13.1,0.3-26.1-0.3-39.3
					C73.3,19.8,72.7,19.6,72.7,20L72.7,20z"/>
			</g>
		</g>
		<g>
			<g>
				<path fill="#FB2710" d="M4.9,12.3C4,18.9,5,25.9,5.3,32.5C5.6,40,4.6,48.3,5.9,55.8c0.1,0.6,1.3,1.1,1.2,0.2
					C6.4,41.6,5.8,27,5.8,12.7C5.8,12.2,5,11.7,4.9,12.3L4.9,12.3z"/>
			</g>
		</g>
		<g>
			<g>
				<path fill="#FB2710" d="M34.1,66.7c4.3,1.5,0.3,6.5,2.7,9.2c0.4,0.4,1,0.2,0.8-0.4c-0.6-2.1,0.2-4,0-6.2c-0.2-2.1-1.5-3.3-3.4-4
					C33.3,65,33.3,66.4,34.1,66.7L34.1,66.7z"/>
			</g>
		</g>
		<g>
			<g>
				<path fill="#FB2710" d="M37.5,76.1c5.9,1,12.9-3.5,17.7-6.6c2.9-1.9,5.8-3.8,8.8-5.5c3-1.7,6.3-2.7,9.3-4.4
					c0.4-0.2,0-0.7-0.4-0.7c-5.7,0.4-11.6,4.8-16.3,7.8c-5.8,3.8-12.4,7.7-19.3,8.8C36.9,75.6,37.2,76.1,37.5,76.1L37.5,76.1z"/>
			</g>
		</g>
		<g>
			<g>
				<path fill="#FB2710" d="M6.2,56c6.2,7.7,19.4,7.4,28,10.4c0.6,0.2,0.6-0.5,0.2-0.8c-8.1-5.6-20.7-1.8-27.4-10
					C6.6,55.2,5.7,55.4,6.2,56L6.2,56z"/>
			</g>
		</g>
	</g>
</g>
</svg>
